<svg xmlns="http://www.w3.org/2000/svg" viewBox="0 0 356 360">
	<path fill="#050a14"
		d="" />
	<path fill="#00b4ff"
		d="" />
	<path fill="rgb(255, 0, 169)"
		d="M178 9.2a62.6 62.6 0 11-.1 125.2A62.6 62.6 0 01178 9.2m0-9.2a71.7 71.7 0 100 143.5A71.7 71.7 0 00178 0z" />
	
	<path fill="rgb(255, 0, 169)"
		d="M.5 251.9c29.6-.5 59.2-.8 88.8-1l88.7-.3 88.7.3 44.4.4 44.4.6-44.4.6-44.4.4-88.7.3-88.7-.3a7981 7981 0 01-88.8-1z" />
	<path fill="none"
		d="M -565.2 324 H -252 v 15.8 h -313.2 z" />
	<ellipse transform="matrix(0,-1,1,0,112.5,236.3)" cx="175.7" cy="65.7" rx="35.6" ry="24.4" fill="rgb(255, 0, 188)" />
    <ellipse transform="matrix(0.5,-0.9,0.9,0.5,46.6,186.6)" cx="148.7" cy="38.2" rx="35.6" ry="24.4" fill="rgb(236, 234, 234)"/>
    <ellipse fill="rgb(252, 239, 239)" transform="matrix(0.7,0.8,-0.8,0.7,163.6,-87.2)" cx="145.8" cy="76.2" rx="35.6" ry="24.4"/>
</svg>